<?xml version="1.0" encoding="utf-8"?>
<!-- Generator: Adobe Illustrator 18.1.1, SVG Export Plug-In . SVG Version: 6.00 Build 0)  -->
<svg version="1.1" id="Layer_1" xmlns="http://www.w3.org/2000/svg" xmlns:xlink="http://www.w3.org/1999/xlink" x="0px" y="0px"
	 viewBox="0 0 987 122" enable-background="new 0 0 987 122" xml:space="preserve">
<path fill="#34495E" d="M101.4,29.6c15.2,0,23.5,8.9,23.5,26v32.1c0,1-0.5,1.5-1.6,1.5h-11.2c-0.9,0-1.4-0.5-1.4-1.5v-30
	c0-10.2-4.3-15.3-12.9-15.3c-5.4,0-12.2,2.2-12.2,2.2l-0.1,43.2c0,0.9-0.5,1.4-1.4,1.4H73.2c-1.1,0-1.8-0.5-1.8-1.4V36.7
	c0-0.2,0.5-1.2,1.3-1.6C76.9,33.3,87.6,29.6,101.4,29.6z"/>
<path fill="#34495E" d="M266.1,29.6c15.2,0,23.5,8.9,23.5,26v32.1c0,1-0.5,1.5-1.6,1.5h-11.2c-0.9,0-1.4-0.5-1.4-1.5v-30
	c0-10.2-4.3-15.3-12.9-15.3c-5.4,0-12.2,2.2-12.2,2.2l-0.1,43.2c0,0.9-0.5,1.4-1.4,1.4h-10.9c-1.1,0-1.8-0.5-1.8-1.4V36.7
	c0-0.2,0.5-1.2,1.3-1.6C241.6,33.3,252.3,29.6,266.1,29.6z"/>
<path fill="#34495E" d="M133.6,12.2c0-1.1,0.5-1.8,1.4-1.8h11.2c1.4,0,1.6,0.4,1.6,1.8v18.7h14.2c1.3,0,1.6,0.1,1.6,1.3v10.2
	c0,1.1,0,1.4-1.4,1.4h-14.4v20.7c0,10.4,4.8,14.3,13.4,14.7c1.4,0,1.5,0.4,1.5,1.9v8.2c0,0.9-0.5,1.4-1.6,1.4
	c-18.9-0.4-27.5-7-27.5-24.2V12.2z"/>
<path fill="#34495E" d="M212.9,85.3c-6.1,3.4-12.9,5.1-20.3,5.1c-14,0-21.7-6.6-21.7-18.2c0-12.5,8.8-19.7,23.8-19.7
	c5.5,0,10.8,1,15.9,3v-3.9c0-6.4-5.3-9.7-15.8-9.7c-6.1,0-11.5,1.1-16.2,3.5c-1,0.6-1.8,0.2-1.8-0.8v-10c0-1.1,0.5-1.9,1.4-2.3
	c5.8-1.9,12.2-2.9,19.3-2.9c16.2,0,26.7,7.3,26.7,22.8v35.4c0,0.9-0.4,1.4-1.3,1.4h-7.3c-1.4,0-1.6-0.3-2.3-1.9L212.9,85.3z
	 M194.7,79c5.9,0,11.2-1.3,15.9-3.8v-8.4c-4.5-1.9-9.8-2.8-15.8-2.8s-10.7,3.1-10.7,7.6C184.2,75.9,188.5,79,194.7,79z"/>
<path fill="#34495E" d="M344.7,84.4c-4.9,4-10.7,6-17.3,6c-8.2,0-15-2.8-20.8-8.2c-5.8-5.5-8.7-13-8.7-22.4c0-9.3,2.9-16.7,8.7-22.1
	c5.9-5.4,12.8-8.2,20.8-8.2c6.4,0,12.2,2.1,17.3,6.3V34c0-2.6,0.4-3.1,2.5-3.1h9.7c2,0,2.3,0.1,2.3,2.6v51.7
	c0,11.2-4,19.7-10.4,24.1c-6.1,4.4-12.8,6.3-19.8,6.3c-7,0-13.2-1-18.3-2.9c-1-0.4-1.5-1.1-1.5-2.4v-9.7c0-1.3,0.6-1.6,1.9-1
	c5,2,10.2,3,15.4,3c12.2,0,18.3-5.8,18.3-17.3V84.4z M344.7,70.8V49.3c-3.9-5.1-9-7.6-15.4-7.6c-4.8,0-8.9,1.8-12.4,5.1
	c-3.5,3.4-5.3,7.7-5.3,13c0,5.4,1.6,9.8,5,13.3c3.4,3.5,7.7,5.3,12.7,5.3C335.7,78.4,340.8,75.9,344.7,70.8z"/>
<path fill="#34495E" d="M383,87.7c0,1-0.5,1.5-1.5,1.5h-11.2c-1.1,0-1.5-0.4-1.5-1.8V11c0-1,0.4-1.5,1.3-1.5h11.4
	c1.4,0,1.5,0.1,1.5,1.5V87.7z"/>
<path fill="#34495E" d="M502.7,35.5V11c0-1,0.5-1.5,1.4-1.5H515c1.1,0,1.8,0.5,1.8,1.4v77c0,0.9-0.4,1.4-1.3,1.4h-7.4
	c-0.5,0-1-0.4-1.4-1l-2-5.1c-5.6,4.9-11.9,7.4-18.9,7.4c-8.2,0-15-2.8-20.8-8.2c-5.6-5.5-8.5-13-8.5-22.4c0-9.4,2.9-16.7,8.7-22.1
	c5.8-5.4,12.7-8.2,20.7-8.2C491.9,29.6,497.6,31.6,502.7,35.5z M502.7,71.4V48.7c-3.9-4.6-8.9-7-15-7c-4.8,0-8.9,1.8-12.4,5.1
	c-3.4,3.4-5.1,7.7-5.1,13c0,5.4,1.6,9.8,5,13.3c3.4,3.5,7.5,5.3,12.5,5.3C493.8,78.4,498.8,76,502.7,71.4z"/>
<path fill="#00A6F6" d="M62.6,62.4c0,1-0.5,1.5-1.4,1.5H19.1c1.1,9.7,7.3,14.5,18.4,14.5c6,0,11-1,15.1-3.1c1.1-0.4,1.8-0.1,1.8,0.8
	v8.7c0,1.1-0.4,1.9-1.1,2.3c-4.9,2.4-10.9,3.5-17.8,3.5c-10.3,0-17.9-2.9-22.9-8.5C7.6,76.3,5,69.1,5,60.6c0-9.3,2.8-16.8,8.3-22.4
	c5.6-5.6,12.5-8.5,20.7-8.5c8.2,0,15,2.8,20.4,8.3c5.4,5.4,8.2,12.5,8.2,21.4V62.4z M19.7,53.2h29.3c-1.9-7.6-7-12.4-15-12.4
	C26.9,40.8,21.7,45.6,19.7,53.2z"/>
<path fill="#00A6F6" d="M391.9,59.4c0-8.9,2.8-16.1,8.2-21.4c5.4-5.5,12.3-8.3,20.4-8.3c8.2,0,15,2.9,20.7,8.5
	c5.5,5.6,8.3,13.2,8.3,22.4c0,8.5-2.5,15.7-7.4,21.3c-5,5.6-12.7,8.5-23,8.5c-6.9,0-12.9-1.1-17.8-3.5c-0.8-0.4-1.1-1.1-1.1-2.3V76
	c0-0.9,0.6-1.1,1.8-0.8c4,2.1,9,3.1,15,3.1c11.2,0,17.3-4.9,18.4-14.5h-42.1c-0.9,0-1.4-0.5-1.4-1.5V59.4z M420.5,40.8
	c-8,0-13.2,4.8-15.1,12.4h29.3C432.8,45.6,427.7,40.8,420.5,40.8z"/>
<g>
	<path fill="#34495E" d="M541.4,84.7c0.8,6.3-10,6.3-9.4,0c0-2.5,1.9-4.6,4.8-4.6C539.4,80,541.4,82.2,541.4,84.7z"/>
	<path fill="#34495E" d="M546,31.9c-0.4-0.6-0.3-1,0.4-1h5.3c0.6,0,1.1,0.2,1.4,0.9l19.7,45.4l19.9-45.5c0.1-0.5,0.6-0.8,1.3-0.8
		h5.3c0.6,0,0.8,0.4,0.4,1.1l-26.1,56.8c-0.4,1.1-0.9,1.1-1.5,0.1L546,31.9z"/>
	<path fill="#34495E" d="M656.5,59.5c0,0.6-0.4,1-1.1,1h-48.1v0.2c0,13.9,7.3,23.8,23.4,23.8c5.6,0,11.3-1.4,16.9-4.1
		c0.9-0.4,1.3-0.1,1.3,0.5v3.9c0,0.6-0.3,1-0.8,1.4c-5.5,2.9-11.5,4.3-18.2,4.3c-10,0-17.4-2.8-22.2-8.3c-4.8-5.6-7.1-12.7-7.1-21.3
		c0-9.3,2.8-16.8,8.1-22.6c5.4-5.8,12-8.6,19.8-8.6c7.9,0,14.5,2.6,19.9,7.9c5.4,5.3,8,12.3,8,20.9V59.5z M607.7,55.1h42.2
		c-1.4-11.9-9.4-19.9-21.3-19.9C617.9,35.2,609.7,43.2,607.7,55.1z"/>
	<path fill="#34495E" d="M675.7,37.4c5.4-5.1,12.2-7.8,20.6-7.8c15.2,0,22.7,8,22.7,24.1v34.5c0,0.6-0.4,1-1,1h-4.9
		c-0.6,0-0.9-0.4-0.9-1V54.5c0-12.4-5.6-18.7-17-18.7c-7.3,0-13.8,2.9-19.4,8.6v43.9c0,0.6-0.3,0.9-0.9,0.9h-5c-0.6,0-0.9-0.4-0.9-1
		V31.9c0-0.6,0.3-1,0.9-1h4.9c0.6,0,1,0.2,1,0.9V37.4z"/>
	<path fill="#34495E" d="M764.8,89.6c0,0.6-0.4,0.9-1.1,0.9c-14.5-0.1-21.8-7-21.8-22.6V37.1h-13.7c-1,0-1.3-0.3-1.3-1.1V32
		c0-0.8,0.4-1.1,1.3-1.1h13.7V8.6c0-0.9,0.4-1.4,1-1.4h4.6c0.8,0,1.1,0.5,1.1,1.4v22.3h15.2c0.9,0,1.3,0.4,1.3,1v4.1
		c0,0.6-0.4,1-1,1h-15.4v30.1c0,11.5,5,17.4,15,17.7c1,0,1.1,0.1,1.1,1.3V89.6z"/>
	<path fill="#34495E" d="M776.7,32.3c0-0.9,0.4-1.4,1.3-1.4h4.4c1,0,1.1,0.2,1.1,1.4v31.1c0,14.2,6,21.2,17.9,21.2
		c11.9,0,17.9-7,17.9-21.2V32.3c0-1.1,0.1-1.4,1.1-1.4h4.8c0.6,0,0.9,0.4,0.9,1v31.6c0,17.9-8.3,26.9-24.7,26.9
		c-16.4,0-24.7-9-24.7-26.9V32.3z"/>
	<path fill="#34495E" d="M847.3,30.9c0.8,0,1.1,0.4,1.1,1.3l0.1,7.5c4.5-6.6,10.5-10,17.9-10c3.9,0,7.1,0.5,9.9,1.6
		c0.6,0.4,0.9,0.8,0.9,1.3v3.6c0,0.6-0.4,0.9-1.1,0.8c-2.5-0.9-5.6-1.4-9.4-1.4c-6.6,0-12.5,3.5-17.9,10.7v42c0,0.6-0.4,1-1,1h-4.9
		c-0.6,0-0.9-0.3-0.9-0.9V32.4c0-1,0.4-1.5,1.1-1.5H847.3z"/>
	<path fill="#34495E" d="M936.2,59.5c0,0.6-0.4,1-1.1,1h-48.1v0.2c0,13.9,7.3,23.8,23.4,23.8c5.6,0,11.3-1.4,16.9-4.1
		c0.9-0.4,1.3-0.1,1.3,0.5v3.9c0,0.6-0.3,1-0.8,1.4c-5.5,2.9-11.5,4.3-18.2,4.3c-10,0-17.4-2.8-22.2-8.3c-4.8-5.6-7.1-12.7-7.1-21.3
		c0-9.3,2.8-16.8,8.1-22.6c5.4-5.8,12-8.6,19.8-8.6c7.9,0,14.5,2.6,19.9,7.9c5.4,5.3,8,12.3,8,20.9V59.5z M887.3,55.1h42.2
		c-1.4-11.9-9.4-19.9-21.3-19.9C897.6,35.2,889.3,43.2,887.3,55.1z"/>
	<path fill="#34495E" d="M953,43.4c0,5,4.6,7.9,10.5,9.9c8.4,2.6,19.4,6.8,19.3,20.8c0,10.9-6.8,16.3-20.3,16.3
		c-7.6,0-13.7-1.5-17.9-4.4c-0.5-0.4-0.8-0.9-0.8-1.5v-4c0-0.9,0.4-1,1.3-0.4c4.4,3.1,10,4.6,16.7,4.6c9.5,0,14.3-3.6,14.3-10.9
		c0-6.9-4.6-10.9-10.5-13c-8.5-3.1-19.3-5.5-19.3-17.5c0-8.6,7-13.7,17.9-13.7c6,0,10.9,1.1,14.5,3.4c0.9,0.5,1.4,1.1,1.4,2v3.4
		c0,1.1-0.5,1.3-1.6,0.5c-3.5-2.4-7.9-3.6-13.3-3.6C958,35.3,953,37.9,953,43.4z"/>
</g>
</svg>
