<?xml version="1.0" encoding="UTF-8" standalone="no"?>
<svg width="53px" height="62px" viewBox="0 0 53 62" version="1.1" xmlns="http://www.w3.org/2000/svg" xmlns:xlink="http://www.w3.org/1999/xlink" xmlns:sketch="http://www.bohemiancoding.com/sketch/ns">
    <!-- Generator: Sketch 3.4 (15575) - http://www.bohemiancoding.com/sketch -->
    <title>guidance-icon</title>
    <desc>Created with Sketch.</desc>
    <defs></defs>
    <g id="Final" stroke="none" stroke-width="1" fill="none" fill-rule="evenodd" sketch:type="MSPage">
        <g id="Index-Copy-2" sketch:type="MSArtboardGroup" transform="translate(-419.000000, -1118.000000)" fill="#FFFFFF">
            <g id="Rectangle-174-+-Group-+-We-provide" sketch:type="MSLayerGroup" transform="translate(0.000000, 898.000000)">
                <g id="Rectangle-174-+-Group" sketch:type="MSShapeGroup">
                    <g id="Guide-platform" transform="translate(419.000000, 217.000000)">
                        <g id="Gui-text">
                            <g id="guidance-icon" transform="translate(0.000000, 3.000000)">
                                <path d="M53,35.4805333 C53,22.4412444 43.5425974,11.5788444 31.1344026,9.38266667 C31.8812208,8.40306667 32.3306883,7.18373333 32.3306883,5.859 C32.3306883,2.6474 29.7199221,0.0344444444 26.511013,0.0344444444 C23.3021039,0.0344444444 20.6913377,2.6474 20.6913377,5.859 C20.6913377,7.18373333 21.1408052,8.40306667 21.8883117,9.38266667 C9.48011688,11.5788444 0.0227142857,22.4419333 0.0227142857,35.4805333 C0.0227142857,50.0987556 11.9057273,61.9910444 26.5117013,61.9910444 C41.116987,61.9910444 53,50.0987556 53,35.4805333 Z M26.5117013,2.78931111 C28.2028831,2.78931111 29.5781299,4.1664 29.5781299,5.85831111 C29.5781299,7.55022222 28.2028831,8.92731111 26.5117013,8.92731111 C24.8212078,8.92731111 23.4452727,7.55022222 23.4452727,5.85831111 C23.4452727,4.1664 24.8212078,2.78931111 26.5117013,2.78931111 L26.5117013,2.78931111 Z M26.5117013,11.7255778 C39.5992597,11.7255778 50.2467532,22.382 50.2467532,35.4805333 C50.2467532,48.5797556 39.5992597,59.2354889 26.5117013,59.2354889 C13.4241429,59.2354889 2.77664935,48.5790667 2.77664935,35.4805333 C2.77596104,22.382 13.4241429,11.7255778 26.5117013,11.7255778 L26.5117013,11.7255778 Z" id="Shape"></path>
                                <path d="M26.5075714,53.7436667 C36.5665584,53.7436667 44.7505844,45.5527778 44.7505844,35.4853556 C44.7505844,25.4172444 36.5665584,17.2263556 26.5075714,17.2263556 C16.4478961,17.2263556 8.26387013,25.4172444 8.26387013,35.4853556 C8.26387013,45.5527778 16.4478961,53.7436667 26.5075714,53.7436667 L26.5075714,53.7436667 Z M26.5075714,19.9819111 C35.0488312,19.9819111 41.9973377,26.9369333 41.9973377,35.4853556 C41.9973377,44.0337778 35.0488312,50.9881111 26.5075714,50.9881111 C17.9663117,50.9881111 11.0171169,44.0337778 11.0171169,35.4853556 C11.0171169,26.9369333 17.9663117,19.9819111 26.5075714,19.9819111 L26.5075714,19.9819111 Z" id="Shape"></path>
                                <path d="M28.5773247,39.6428 C31.3801299,36.8376444 34.3873636,27.7098667 34.3873636,27.7098667 C34.3873636,27.7098667 25.2672338,30.7196222 22.4644286,33.5247778 C21.0822987,34.9080667 20.9639091,37.7655778 22.6523377,39.4547333 C24.3400779,41.1445778 27.1951948,41.0267778 28.5773247,39.6428 L28.5773247,39.6428 Z" id="Shape"></path>
                            </g>
                        </g>
                    </g>
                </g>
            </g>
        </g>
    </g>
</svg>