<?xml version="1.0" encoding="UTF-8" standalone="no"?>
<svg width="38px" height="34px" viewBox="0 0 38 34" version="1.1" xmlns="http://www.w3.org/2000/svg" xmlns:xlink="http://www.w3.org/1999/xlink">
    <!-- Generator: Sketch 3.7 (28169) - http://www.bohemiancoding.com/sketch -->
    <title>Fill 88</title>
    <desc>Created with Sketch.</desc>
    <defs></defs>
    <g id="Page-1" stroke="none" stroke-width="1" fill="none" fill-rule="evenodd">
        <g id="SOCIAL-ICONS-SKETCH" transform="translate(-675.000000, -101.000000)" fill="#8E99A8">
            <g id="SINGLE-GREY" transform="translate(158.000000, 99.000000)">
                <path d="M518.677,13.119 L525.867,13.119 L525.867,35.901 L518.677,35.901 L518.677,13.119 Z M545.512,12.9 C541.393,12.9 538.812,15.131 538.335,16.695 L538.335,13.119 L530.258,13.119 C530.362,15.018 530.258,35.901 530.258,35.901 L538.335,35.901 L538.335,23.573 C538.335,22.888 538.303,22.203 538.511,21.711 C539.066,20.341 540.259,18.92 542.404,18.92 C545.209,18.92 546.484,21.026 546.484,24.112 L546.484,35.901 L554.637,35.901 L554.637,23.234 C554.637,16.177 550.622,12.9 545.512,12.9 Z M522.139,2.365 C519.484,2.365 517.747,4.07 517.747,6.32 C517.747,8.528 519.435,10.27 522.037,10.27 L522.089,10.27 C524.792,10.27 526.475,8.522 526.475,6.314 C526.423,4.066 524.792,2.365 522.139,2.365 Z" id="Fill-88"></path>
            </g>
        </g>
    </g>
</svg>