<?xml version="1.0" encoding="UTF-8" standalone="no"?>
<svg width="58px" height="65px" viewBox="0 0 58 65" version="1.1" xmlns="http://www.w3.org/2000/svg" xmlns:xlink="http://www.w3.org/1999/xlink" xmlns:sketch="http://www.bohemiancoding.com/sketch/ns">
    <!-- Generator: Sketch 3.4 (15575) - http://www.bohemiancoding.com/sketch -->
    <title>infrastructure-icon</title>
    <desc>Created with Sketch.</desc>
    <defs></defs>
    <g id="Final" stroke="none" stroke-width="1" fill="none" fill-rule="evenodd" sketch:type="MSPage">
        <g id="Index-Copy-2" sketch:type="MSArtboardGroup" transform="translate(-643.000000, -960.000000)" fill="#FFFFFF">
            <g id="Rectangle-174-+-Group-+-We-provide" sketch:type="MSLayerGroup" transform="translate(0.000000, 898.000000)">
                <g id="Rectangle-174-+-Group" sketch:type="MSShapeGroup">
                    <g id="Infrastucture" transform="translate(643.000000, 21.000000)">
                        <g id="Inf-text" transform="translate(0.000000, 37.000000)">
                            <g id="infrastructure-icon" transform="translate(0.000000, 4.000000)">
                                <path d="M52.0638853,53.3983531 C49.7574967,53.3983531 47.6817471,54.7632527 46.7591917,56.8106022 L8.24250326,56.8106022 L8.24250326,36.3371076 C8.24250326,34.9722079 7.31994785,34.0622748 5.93611473,34.0622748 C4.55228162,34.0622748 3.62972621,34.9722079 3.62972621,36.3371076 L3.62972621,56.8106022 C3.62972621,59.3129182 5.70547588,61.3602676 8.24250326,61.3602676 L46.7591917,61.3602676 C47.6817471,63.4076171 49.7574967,64.7725167 52.0638853,64.7725167 C55.2928292,64.7725167 57.8298566,62.2702007 57.8298566,59.0854349 C57.8298566,55.9006691 55.2928292,53.3983531 52.0638853,53.3983531 L52.0638853,53.3983531 Z" id="Shape"></path>
                                <path d="M11.702086,23.8255275 C11.702086,23.1430777 11.4714472,22.4606279 11.2408083,21.7781781 L29,4.94441585 L48.8349413,23.8255275 C49.296219,24.2804941 49.7574967,25.4179104 49.7574967,26.1003603 L49.7574967,45.6639218 C49.7574967,47.0288214 50.6800522,47.9387545 52.0638853,47.9387545 C53.4477184,47.9387545 54.3702738,47.0288214 54.3702738,45.6639218 L54.3702738,26.1003603 C54.3702738,24.2804941 53.4477184,22.0056613 52.0638853,20.6407617 L32.2289439,1.75965003 C30.3838331,-0.0602161606 27.6161669,-0.0602161606 25.7710561,1.75965003 L8.24250326,18.365929 C7.5505867,18.1384457 6.85867014,17.9109624 5.93611473,17.9109624 C2.7071708,17.9109624 0.170143416,20.4132784 0.170143416,23.5980443 C0.170143416,26.7828101 2.7071708,29.2851261 5.93611473,29.2851261 C9.16505867,29.2851261 11.702086,26.7828101 11.702086,23.8255275 L11.702086,23.8255275 Z" id="Shape"></path>
                            </g>
                        </g>
                    </g>
                </g>
            </g>
        </g>
    </g>
</svg>