<?xml version="1.0" encoding="UTF-8" standalone="no"?>
<svg width="61px" height="62px" viewBox="0 0 61 62" version="1.1" xmlns="http://www.w3.org/2000/svg" xmlns:xlink="http://www.w3.org/1999/xlink" xmlns:sketch="http://www.bohemiancoding.com/sketch/ns">
    <!-- Generator: Sketch 3.4 (15575) - http://www.bohemiancoding.com/sketch -->
    <title>relationships-icon</title>
    <desc>Created with Sketch.</desc>
    <defs></defs>
    <g id="Final" stroke="none" stroke-width="1" fill="none" fill-rule="evenodd" sketch:type="MSPage">
        <g id="Index-Copy-2" sketch:type="MSArtboardGroup" transform="translate(-171.000000, -1250.000000)" fill="#FFFFFF">
            <g id="Rectangle-174-+-Group-+-We-provide" sketch:type="MSLayerGroup" transform="translate(0.000000, 898.000000)">
                <g id="Rectangle-174-+-Group" sketch:type="MSShapeGroup">
                    <g id="Relations" transform="translate(171.000000, 351.000000)">
                        <g id="Rela-text">
                            <g id="Relationships-+-Institutional-connec-+-noun_311875_cc">
                                <g id="relationships-icon" transform="translate(0.000000, 1.000000)">
                                    <path d="M30.2215217,8.53466667 C25.7897391,8.53466667 22.1827826,12.1586667 22.1827826,16.616 C22.1827826,21.0733333 25.788413,24.6973333 30.2215217,24.6973333 C34.6546304,24.6973333 38.2589348,21.072 38.2589348,16.616 C38.2589348,12.16 34.6533043,8.53466667 30.2215217,8.53466667 L30.2215217,8.53466667 Z M30.2215217,22.7946667 C26.8333696,22.7946667 24.0751087,20.0226667 24.0751087,16.616 C24.0751087,13.208 26.8333696,10.436 30.2215217,10.436 C33.611,10.436 36.3666087,13.208 36.3666087,16.616 C36.3666087,20.0226667 33.611,22.7946667 30.2215217,22.7946667 L30.2215217,22.7946667 Z" id="Shape"></path>
                                    <path d="M32.1642391,16.88 L30.5875217,16.88 L30.5875217,13.2893333 C30.5875217,12.764 30.1645,12.3386667 29.6420217,12.3386667 C29.1195435,12.3386667 28.6965217,12.764 28.6965217,13.2893333 L28.6965217,17.8306667 C28.6965217,18.356 29.1195435,18.7813333 29.6420217,18.7813333 L32.1642391,18.7813333 C32.6867174,18.7813333 33.1097391,18.356 33.1097391,17.8306667 C33.1097391,17.3053333 32.6853913,16.88 32.1642391,16.88 L32.1642391,16.88 Z" id="Shape"></path>
                                    <path d="M46.619913,11.6853333 C46.8997174,11.2413333 46.7671087,10.6546667 46.3268478,10.3733333 L30.7267609,0.442666667 C30.4177826,0.246666667 30.0226087,0.246666667 29.7149565,0.442666667 L14.1122174,10.3733333 C13.6719565,10.6546667 13.5406739,11.2413333 13.8204783,11.6853333 C14.0989565,12.1293333 14.6837609,12.2586667 15.1240217,11.98 L30.2215217,2.372 L45.3163696,11.98 C45.4741739,12.0786667 45.6478913,12.1266667 45.8216087,12.1266667 C46.1332391,12.128 46.4408913,11.9706667 46.619913,11.6853333 L46.619913,11.6853333 Z" id="Shape"></path>
                                    <path d="M16.9831957,55.6453333 C17.5056739,55.6453333 17.9273696,55.2226667 17.9273696,54.6973333 L17.9273696,13.9213333 C17.9273696,13.3973333 17.5056739,12.972 16.9831957,12.972 C16.4607174,12.972 16.0390217,13.3973333 16.0390217,13.9213333 L16.0390217,54.6973333 C16.0376957,55.2226667 16.4607174,55.6453333 16.9831957,55.6453333 L16.9831957,55.6453333 Z" id="Shape"></path>
                                    <path d="M43.4571957,12.972 C42.9333913,12.972 42.5116957,13.3973333 42.5116957,13.9213333 L42.5116957,54.6973333 C42.5116957,55.2226667 42.9333913,55.6453333 43.4571957,55.6453333 C43.9796739,55.6453333 44.4013696,55.2226667 44.4013696,54.6973333 L44.4013696,13.9213333 C44.4013696,13.3973333 43.9796739,12.972 43.4571957,12.972 L43.4571957,12.972 Z" id="Shape"></path>
                                    <path d="M22.1827826,38.4293333 C22.1827826,38.956 22.6058043,39.3773333 23.1282826,39.3773333 L27.3306522,39.3773333 C27.8531304,39.3773333 28.2761522,38.956 28.2761522,38.4293333 L28.2761522,31.2466667 C28.2761522,30.7213333 27.8531304,30.296 27.3306522,30.296 L23.1282826,30.296 C22.6058043,30.296 22.1827826,30.7213333 22.1827826,31.2466667 L22.1827826,38.4293333 L22.1827826,38.4293333 Z M24.0737826,32.196 L26.3851522,32.196 L26.3851522,37.476 L24.0737826,37.476 L24.0737826,32.196 L24.0737826,32.196 Z" id="Shape"></path>
                                    <path d="M33.1097391,30.296 C32.5859348,30.296 32.1642391,30.7213333 32.1642391,31.2466667 L32.1642391,38.4293333 C32.1642391,38.956 32.5859348,39.3773333 33.1097391,39.3773333 L37.3121087,39.3773333 C37.834587,39.3773333 38.2589348,38.956 38.2589348,38.4293333 L38.2589348,31.2466667 C38.2589348,30.7213333 37.834587,30.296 37.3121087,30.296 L33.1097391,30.296 L33.1097391,30.296 Z M36.3666087,37.476 L34.053913,37.476 L34.053913,32.196 L36.3666087,32.196 L36.3666087,37.476 L36.3666087,37.476 Z" id="Shape"></path>
                                    <path d="M19.8183696,44.24 C19.8183696,44.7666667 20.2427174,45.188 20.7651957,45.188 L24.2846304,45.188 L24.2846304,55.6466667 C24.2846304,56.172 24.7076522,56.5986667 25.2301304,56.5986667 C25.7526087,56.5986667 26.1769565,56.172 26.1769565,55.6466667 L26.1769565,45.188 L34.2647609,45.188 L34.2647609,55.6466667 C34.2647609,56.172 34.6877826,56.5986667 35.211587,56.5986667 C35.7327391,56.5986667 36.157087,56.172 36.157087,55.6466667 L36.157087,45.188 L39.6765217,45.188 C40.199,45.188 40.6220217,44.7666667 40.6220217,44.24 C40.6220217,43.7146667 40.199,43.288 39.6765217,43.288 L35.211587,43.288 L25.2301304,43.288 L20.7651957,43.288 C20.2440435,43.288 19.8183696,43.7146667 19.8183696,44.24 L19.8183696,44.24 Z" id="Shape"></path>
                                    <path d="M43.4571957,57.2306667 L16.9831957,57.2306667 C16.4607174,57.2306667 16.0390217,57.6573333 16.0390217,58.1826667 L16.0390217,60.9293333 C16.0390217,61.4546667 16.4620435,61.8786667 16.9831957,61.8786667 C17.5056739,61.8786667 17.9273696,61.4546667 17.9273696,60.9293333 L17.9273696,59.132 L42.5130217,59.132 L42.5130217,60.9293333 C42.5130217,61.4546667 42.9347174,61.8786667 43.4585217,61.8786667 C43.981,61.8786667 44.4026957,61.4546667 44.4026957,60.9293333 L44.4026957,58.1826667 C44.4013696,57.6573333 43.9796739,57.2306667 43.4571957,57.2306667 L43.4571957,57.2306667 Z" id="Shape"></path>
                                    <path d="M59.4537826,22.3746667 C58.9313043,22.3746667 58.5056304,22.8 58.5056304,23.3253333 L58.5056304,24.9093333 L46.4263043,24.9093333 C45.9025,24.9093333 45.4821304,25.336 45.4821304,25.8613333 C45.4821304,26.3853333 45.9025,26.8106667 46.4263043,26.8106667 L58.5056304,26.8106667 L58.5056304,55.7626667 C58.1608478,55.624 57.7855652,55.5426667 57.3917174,55.5426667 L56.8705652,55.5426667 C56.3374783,54.08 54.9437609,53.0613333 53.3458261,53.0613333 C51.7492174,53.0613333 50.3541739,54.0813333 49.8197609,55.5426667 L49.6155435,55.5426667 C47.9579348,55.5426667 46.6093043,56.8986667 46.6093043,58.5653333 C46.6093043,60.2306667 47.9579348,61.588 49.6155435,61.588 L57.3917174,61.588 C59.0440217,61.588 60.3860217,60.2413333 60.3979565,58.5853333 C60.3979565,58.5813333 60.3992826,58.5773333 60.3992826,58.5746667 L60.3992826,23.3253333 C60.3992826,22.8 59.9749348,22.3746667 59.4537826,22.3746667 L59.4537826,22.3746667 Z M57.3917174,59.6866667 L49.6155435,59.6866667 C49.0015652,59.6866667 48.5003043,59.1853333 48.5003043,58.5653333 C48.5003043,57.944 49.0015652,57.4426667 49.6155435,57.4426667 L50.5583913,57.4426667 C51.0344565,57.4426667 51.4362609,57.0853333 51.4946087,56.6106667 C51.6139565,55.6693333 52.4096087,54.9613333 53.3458261,54.9613333 C54.2820435,54.9613333 55.0763696,55.6693333 55.1957174,56.6106667 C55.2553913,57.0853333 55.6585217,57.4426667 56.134587,57.4426667 L57.3917174,57.4426667 C58.0070217,57.4426667 58.5056304,57.944 58.5056304,58.5653333 C58.5056304,59.1853333 58.0070217,59.6866667 57.3917174,59.6866667 L57.3917174,59.6866667 Z" id="Shape"></path>
                                    <path d="M49.2084348,39.3773333 L53.5036304,39.3773333 C54.0261087,39.3773333 54.4491304,38.956 54.4491304,38.4293333 L54.4491304,31.5893333 C54.4491304,31.064 54.0261087,30.6386667 53.5036304,30.6386667 L49.2084348,30.6386667 C48.6872826,30.6386667 48.2629348,31.064 48.2629348,31.5893333 L48.2629348,38.4293333 C48.2642609,38.956 48.6886087,39.3773333 49.2084348,39.3773333 L49.2084348,39.3773333 Z M50.1552609,32.54 L52.5594565,32.54 L52.5594565,37.476 L50.1552609,37.476 L50.1552609,32.54 L50.1552609,32.54 Z" id="Shape"></path>
                                    <path d="M48.2642609,50.524 C48.2642609,51.048 48.6886087,51.476 49.2097609,51.476 L53.5049565,51.476 C54.0274348,51.476 54.4504565,51.048 54.4504565,50.524 L54.4504565,43.6826667 C54.4504565,43.1573333 54.0274348,42.7346667 53.5049565,42.7346667 L49.2097609,42.7346667 C48.6886087,42.7346667 48.2642609,43.1573333 48.2642609,43.6826667 L48.2642609,50.524 L48.2642609,50.524 Z M50.1552609,44.6346667 L52.5594565,44.6346667 L52.5594565,49.5746667 L50.1552609,49.5746667 L50.1552609,44.6346667 L50.1552609,44.6346667 Z" id="Shape"></path>
                                    <path d="M14.015413,24.908 L1.93343478,24.908 L1.93343478,23.324 C1.93343478,22.7986667 1.51041304,22.3733333 0.98926087,22.3733333 C0.466782609,22.3733333 0.0437608696,22.7986667 0.0437608696,23.324 L0.0437608696,58.5733333 C0.0437608696,58.576 0.0450869565,58.58 0.0450869565,58.584 C0.0570217391,60.24 1.39769565,61.5866667 3.05,61.5866667 L10.8248478,61.5866667 C12.4837826,61.5866667 13.831087,60.2293333 13.831087,58.564 C13.831087,56.8973333 12.4837826,55.5413333 10.8248478,55.5413333 L10.6206304,55.5413333 C10.0875435,54.0786667 8.6925,53.06 7.09456522,53.06 C5.49795652,53.06 4.10291304,54.08 3.56982609,55.5413333 L3.04867391,55.5413333 C2.65482609,55.5413333 2.27821739,55.624 1.9321087,55.7613333 L1.9321087,26.8106667 L14.014087,26.8106667 C14.5352391,26.8106667 14.959587,26.3853333 14.959587,25.8613333 C14.960913,25.3346667 14.5365652,24.908 14.015413,24.908 L14.015413,24.908 Z M3.04867391,57.4426667 L4.30713043,57.4426667 C4.78452174,57.4426667 5.185,57.0853333 5.24467391,56.6106667 C5.36269565,55.6693333 6.15834783,54.9613333 7.09456522,54.9613333 C8.03078261,54.9613333 8.82643478,55.6693333 8.94445652,56.6106667 C9.00413043,57.0853333 9.40726087,57.4426667 9.882,57.4426667 L10.8248478,57.4426667 C11.4414783,57.4426667 11.940087,57.944 11.940087,58.5653333 C11.940087,59.1853333 11.4414783,59.6866667 10.8248478,59.6866667 L3.04867391,59.6866667 C2.43469565,59.6866667 1.9321087,59.1853333 1.9321087,58.5653333 C1.93343478,57.944 2.43469565,57.4426667 3.04867391,57.4426667 L3.04867391,57.4426667 Z" id="Shape"></path>
                                    <path d="M12.1774565,31.5893333 C12.1774565,31.064 11.7544348,30.6386667 11.2319565,30.6386667 L6.93676087,30.6386667 C6.41428261,30.6386667 5.98993478,31.064 5.98993478,31.5893333 L5.98993478,38.4293333 C5.98993478,38.956 6.41428261,39.3773333 6.93676087,39.3773333 L11.2306304,39.3773333 C11.7531087,39.3773333 12.1761304,38.956 12.1761304,38.4293333 L12.1761304,31.5893333 L12.1774565,31.5893333 Z M10.2851304,37.476 L7.88358696,37.476 L7.88358696,32.54 L10.2864565,32.54 L10.2864565,37.476 L10.2851304,37.476 Z" id="Shape"></path>
                                    <path d="M11.2306304,42.7346667 L6.93676087,42.7346667 C6.41428261,42.7346667 5.98993478,43.1573333 5.98993478,43.6826667 L5.98993478,50.524 C5.98993478,51.048 6.41428261,51.476 6.93676087,51.476 L11.2306304,51.476 C11.7531087,51.476 12.1761304,51.048 12.1761304,50.524 L12.1761304,43.6826667 C12.1774565,43.1573333 11.7531087,42.7346667 11.2306304,42.7346667 L11.2306304,42.7346667 Z M10.2851304,49.5746667 L7.88358696,49.5746667 L7.88358696,44.6346667 L10.2864565,44.6346667 L10.2864565,49.5746667 L10.2851304,49.5746667 Z" id="Shape"></path>
                                </g>
                            </g>
                        </g>
                    </g>
                </g>
            </g>
        </g>
    </g>
</svg>