<?xml version="1.0" encoding="utf-8"?>
<!-- Generator: Adobe Illustrator 18.1.1, SVG Export Plug-In . SVG Version: 6.00 Build 0)  -->
<!DOCTYPE svg PUBLIC "-//W3C//DTD SVG 1.1//EN" "http://www.w3.org/Graphics/SVG/1.1/DTD/svg11.dtd">
<svg version="1.1" id="Layer_1" xmlns="http://www.w3.org/2000/svg" xmlns:xlink="http://www.w3.org/1999/xlink" x="0px" y="0px"
	 viewBox="0 0 42 42" style="enable-background:new 0 0 42 42;" xml:space="preserve">
<style type="text/css">
	.st0{fill:#FFFFFF;}
	.st1{fill:#5B6ABF;}
	.st2{fill:#43C1E5;}
	.st3{fill:#00ABC0;}
	.st4{opacity:5.000000e-02;fill:#FFFFFF;}
	.st5{opacity:0.1;}
	.st6{opacity:0.1;fill:#FFFFFF;}
	.st7{opacity:3.000000e-02;}
	.st8{fill:#7D56C1;}
	.st9{fill:#3D70C2;}
</style>
<g>
	<path class="st9" d="M6.6,24.2v-4.3c0-1.5,0.7-2,1.6-2c0.9,0,1.6,0.5,1.6,2v4.3c0,1.5-0.7,2-1.6,2C7.3,26.2,6.6,25.7,6.6,24.2z"/>
	<path class="st9" d="M19.7,19.9v0.8h-3.2v-0.8c0-1.5,0.7-2,1.6-2C19,17.9,19.7,18.4,19.7,19.9z"/>
	<path class="st9" d="M41.8,18.2h-6.5v6.5c0,1,0.3,1.3,1.3,1.3c0.2,0,0.5,0,0.7-0.1c0.6-0.1,0.9,0.3,0.9,0.8v0.7
		c0,0.6-0.3,0.8-0.7,0.9c-0.5,0.1-0.9,0.1-1.2,0.1c-2.3,0-3.5-0.9-3.5-3.5V13.6c0-0.6,0.3-0.9,0.9-0.9h0.9c0.6,0,0.9,0.3,0.9,0.9
		v2.2h6C39,6.7,30.8,0,21,0C15.4,0,10.3,2.2,6.6,5.7v10.8c0.6-0.7,1.4-1,2.3-1c1.9,0,3.4,1.3,3.4,3.9v4.9c0,2.8-1.8,4.2-4.2,4.2
		c-2.4,0-4.2-1.4-4.2-4.2V8.7C1.5,12.1,0,16.4,0,21c0,11.6,9.4,21,21,21s21-9.4,21-21C42,20,41.9,19.1,41.8,18.2z M22.2,21.7
		c0,0.6-0.3,0.9-0.9,0.9h-4.9v1.6c0,1.5,0.7,2,1.6,2c0.9,0,1.5-0.5,1.5-1.3c0-0.5,0.3-0.7,0.7-0.7h1c0.6,0,0.9,0.3,0.9,0.9
		c0,2.1-1.6,3.6-4,3.6c-2.4,0-4.2-1.4-4.2-4.2v-4.6c0-2.8,1.8-4.2,4.2-4.2c2.4,0,4.2,1.4,4.2,4.2V21.7z M27.6,28.6
		c-2.4,0-4-1.4-4-3.3v-0.1c0-0.6,0.3-0.9,0.9-0.9h1c0.5,0,0.7,0.3,0.7,0.7c0,0.8,0.6,1.2,1.5,1.2c0.9,0,1.5-0.3,1.5-1.3v0
		c0-2.4-5.4-1.2-5.4-5.7c0-2.3,1.6-3.6,3.9-3.6c2.3,0,3.9,1.5,3.9,3.4c0,0.6-0.3,0.9-0.9,0.9h-1c-0.5,0-0.7-0.3-0.7-0.7
		c0-0.7-0.5-1.1-1.3-1.1s-1.3,0.4-1.3,1.2v0c0,2.5,5.4,1.3,5.4,5.8C31.7,27.3,30,28.6,27.6,28.6z"/>
</g>
</svg>
